<?xml version="1.0" encoding="UTF-8" standalone="no"?>
<!DOCTYPE svg PUBLIC "-//W3C//DTD SVG 1.1//EN"
 "http://www.w3.org/Graphics/SVG/1.1/DTD/svg11.dtd">
<!-- Generated by graphviz version 14.1.1 (20251213.1925)
 -->
<!-- Title: YotoSmartStreamArchitecture Pages: 1 -->
<svg width="2696pt" height="750pt"
 viewBox="0.00 0.00 2696.00 750.00" xmlns="http://www.w3.org/2000/svg" xmlns:xlink="http://www.w3.org/1999/xlink">
<g id="graph0" class="graph" transform="scale(1 1) rotate(0) translate(4 746)">
<title>YotoSmartStreamArchitecture</title>
<polygon fill="white" stroke="none" points="-4,4 -4,-746 2691.62,-746 2691.62,4 -4,4"/>
<g id="clust1" class="cluster">
<title>cluster_legend</title>
</g>
<!-- client -->
<g id="node1" class="node">
<title>client</title>
<polygon fill="#e8f4f8" stroke="#e8f4f8" points="925.38,-726 835.88,-726 835.88,-690 925.38,-690 925.38,-726"/>
<text xml:space="preserve" text-anchor="middle" x="880.62" y="-710.5" font-family="Arial" font-size="10.00">Web Browser</text>
<text xml:space="preserve" text-anchor="middle" x="880.62" y="-698.5" font-family="Arial" font-size="10.00">(React Frontend)</text>
</g>
<!-- cloudfront -->
<g id="node2" class="node">
<title>cloudfront</title>
<polygon fill="#f8f0e8" stroke="#f8f0e8" points="912.62,-611 848.62,-611 848.62,-575 912.62,-575 912.62,-611"/>
<text xml:space="preserve" text-anchor="middle" x="880.62" y="-595.5" font-family="Arial" font-size="10.00">CloudFront</text>
<text xml:space="preserve" text-anchor="middle" x="880.62" y="-583.5" font-family="Arial" font-size="10.00">CDN</text>
</g>
<!-- client&#45;&gt;cloudfront -->
<g id="edge1" class="edge">
<title>client&#45;&gt;cloudfront</title>
<path fill="none" stroke="#333333" d="M880.62,-689.52C880.62,-689.52 880.62,-622.94 880.62,-622.94"/>
<polygon fill="#333333" stroke="#333333" points="884.13,-622.94 880.63,-612.94 877.13,-622.94 884.13,-622.94"/>
<text xml:space="preserve" text-anchor="middle" x="902.75" y="-652.45" font-family="Times,serif" font-size="9.00">HTTPS</text>
<text xml:space="preserve" text-anchor="middle" x="902.75" y="-641.95" font-family="Times,serif" font-size="9.00">(Cached UI)</text>
</g>
<!-- apigw -->
<g id="node3" class="node">
<title>apigw</title>
<polygon fill="#f8f0e8" stroke="#f8f0e8" points="491.88,-611 417.38,-611 417.38,-575 491.88,-575 491.88,-611"/>
<text xml:space="preserve" text-anchor="middle" x="454.62" y="-595.5" font-family="Arial" font-size="10.00">API Gateway</text>
<text xml:space="preserve" text-anchor="middle" x="454.62" y="-583.5" font-family="Arial" font-size="10.00">(HTTP API)</text>
</g>
<!-- client&#45;&gt;apigw -->
<g id="edge2" class="edge">
<title>client&#45;&gt;apigw</title>
<path fill="none" stroke="#333333" d="M842.25,-689.51C842.25,-658.41 842.25,-599 842.25,-599 842.25,-599 503.66,-599 503.66,-599"/>
<polygon fill="#333333" stroke="#333333" points="503.66,-595.5 493.66,-599 503.66,-602.5 503.66,-595.5"/>
<text xml:space="preserve" text-anchor="middle" x="647.75" y="-652.45" font-family="Times,serif" font-size="9.00">REST API</text>
<text xml:space="preserve" text-anchor="middle" x="647.75" y="-641.95" font-family="Times,serif" font-size="9.00">JSON</text>
</g>
<!-- mqtt_broker -->
<g id="node14" class="node">
<title>mqtt_broker</title>
<polygon fill="#f8e8e8" stroke="#f8e8e8" points="1373.88,-381 1287.38,-381 1287.38,-345 1373.88,-345 1373.88,-381"/>
<text xml:space="preserve" text-anchor="middle" x="1330.62" y="-365.5" font-family="Arial" font-size="10.00">MQTT Message</text>
<text xml:space="preserve" text-anchor="middle" x="1330.62" y="-353.5" font-family="Arial" font-size="10.00">Broker</text>
</g>
<!-- client&#45;&gt;mqtt_broker -->
<g id="edge3" class="edge">
<title>client&#45;&gt;mqtt_broker</title>
<path fill="none" stroke="#333333" stroke-dasharray="5,2" d="M925.83,-708C1039.95,-708 1330.62,-708 1330.62,-708 1330.62,-708 1330.62,-392.58 1330.62,-392.58"/>
<polygon fill="#333333" stroke="#333333" points="1334.13,-392.58 1330.63,-382.58 1327.13,-392.58 1334.13,-392.58"/>
<text xml:space="preserve" text-anchor="middle" x="1364.88" y="-537.45" font-family="Times,serif" font-size="9.00">WebSocket</text>
<text xml:space="preserve" text-anchor="middle" x="1364.88" y="-526.95" font-family="Times,serif" font-size="9.00">(Real&#45;time events)</text>
</g>
<!-- s3_ui -->
<g id="node12" class="node">
<title>s3_ui</title>
<polygon fill="#f0e8f8" stroke="#f0e8f8" points="818.5,-381 756.75,-381 756.75,-345 818.5,-345 818.5,-381"/>
<text xml:space="preserve" text-anchor="middle" x="787.62" y="-365.5" font-family="Arial" font-size="10.00">S3 Bucket</text>
<text xml:space="preserve" text-anchor="middle" x="787.62" y="-353.5" font-family="Arial" font-size="10.00">(UI Files)</text>
</g>
<!-- cloudfront&#45;&gt;s3_ui -->
<g id="edge4" class="edge">
<title>cloudfront&#45;&gt;s3_ui</title>
<path fill="none" stroke="#333333" d="M848.41,-587C825.19,-587 797.92,-587 797.92,-587 797.92,-587 797.92,-392.84 797.92,-392.84"/>
<polygon fill="#333333" stroke="#333333" points="801.42,-392.84 797.92,-382.84 794.42,-392.84 801.42,-392.84"/>
<text xml:space="preserve" text-anchor="middle" x="892.25" y="-474.7" font-family="Times,serif" font-size="9.00">Origin</text>
</g>
<!-- cognito -->
<g id="node4" class="node">
<title>cognito</title>
<polygon fill="#f8f8e0" stroke="#f8f8e0" points="75.25,-381 0,-381 0,-345 75.25,-345 75.25,-381"/>
<text xml:space="preserve" text-anchor="middle" x="37.62" y="-365.5" font-family="Arial" font-size="10.00">AWS Cognito</text>
<text xml:space="preserve" text-anchor="middle" x="37.62" y="-353.5" font-family="Arial" font-size="10.00">User Pool</text>
</g>
<!-- apigw&#45;&gt;cognito -->
<g id="edge6" class="edge">
<title>apigw&#45;&gt;cognito</title>
<path fill="none" stroke="#333333" d="M416.88,-593C312.07,-593 25.08,-593 25.08,-593 25.08,-593 25.08,-392.95 25.08,-392.95"/>
<polygon fill="#333333" stroke="#333333" points="28.58,-392.95 25.08,-382.95 21.58,-392.95 28.58,-392.95"/>
<text xml:space="preserve" text-anchor="middle" x="42" y="-479.95" font-family="Times,serif" font-size="9.00">Authorization</text>
<text xml:space="preserve" text-anchor="middle" x="42" y="-469.45" font-family="Times,serif" font-size="9.00">Validation</text>
</g>
<!-- lambda -->
<g id="node5" class="node">
<title>lambda</title>
<polygon fill="#e8f8e8" stroke="#e8f8e8" points="492.62,-496 416.62,-496 416.62,-460 492.62,-460 492.62,-496"/>
<text xml:space="preserve" text-anchor="middle" x="454.62" y="-480.5" font-family="Arial" font-size="10.00">AWS Lambda</text>
<text xml:space="preserve" text-anchor="middle" x="454.62" y="-468.5" font-family="Arial" font-size="10.00">(yoto&#45;api)</text>
</g>
<!-- apigw&#45;&gt;lambda -->
<g id="edge5" class="edge">
<title>apigw&#45;&gt;lambda</title>
<path fill="none" stroke="#333333" d="M454.62,-574.52C454.62,-574.52 454.62,-507.94 454.62,-507.94"/>
<polygon fill="#333333" stroke="#333333" points="458.13,-507.94 454.63,-497.94 451.13,-507.94 458.13,-507.94"/>
<text xml:space="preserve" text-anchor="middle" x="473.75" y="-532.2" font-family="Times,serif" font-size="9.00">Integration</text>
</g>
<!-- lambda&#45;&gt;cognito -->
<g id="edge10" class="edge">
<title>lambda&#45;&gt;cognito</title>
<path fill="none" stroke="#333333" d="M416.21,-478C315.25,-478 50.17,-478 50.17,-478 50.17,-478 50.17,-392.99 50.17,-392.99"/>
<polygon fill="#333333" stroke="#333333" points="53.67,-392.99 50.17,-382.99 46.67,-392.99 53.67,-392.99"/>
<text xml:space="preserve" text-anchor="middle" x="110.62" y="-422.45" font-family="Times,serif" font-size="9.00">Admin Operations</text>
<text xml:space="preserve" text-anchor="middle" x="110.62" y="-411.95" font-family="Times,serif" font-size="9.00">(user mgmt)</text>
</g>
<!-- s3_audio -->
<g id="node11" class="node">
<title>s3_audio</title>
<polygon fill="#f0e8f8" stroke="#f0e8f8" points="201,-381 130.25,-381 130.25,-345 201,-345 201,-381"/>
<text xml:space="preserve" text-anchor="middle" x="165.62" y="-365.5" font-family="Arial" font-size="10.00">S3 Bucket</text>
<text xml:space="preserve" text-anchor="middle" x="165.62" y="-353.5" font-family="Arial" font-size="10.00">(Audio Files)</text>
</g>
<!-- lambda&#45;&gt;s3_audio -->
<g id="edge8" class="edge">
<title>lambda&#45;&gt;s3_audio</title>
<path fill="none" stroke="#333333" d="M418.84,-459.52C418.84,-427.02 418.84,-363 418.84,-363 418.84,-363 212.88,-363 212.88,-363"/>
<polygon fill="#333333" stroke="#333333" points="212.88,-359.5 202.88,-363 212.88,-366.5 212.88,-359.5"/>
<text xml:space="preserve" text-anchor="middle" x="216.5" y="-417.2" font-family="Times,serif" font-size="9.00">Read/Write Audio</text>
</g>
<!-- lambda&#45;&gt;s3_ui -->
<g id="edge9" class="edge">
<title>lambda&#45;&gt;s3_ui</title>
<path fill="none" stroke="#333333" d="M492.91,-484C578.39,-484 777.33,-484 777.33,-484 777.33,-484 777.33,-392.89 777.33,-392.89"/>
<polygon fill="#333333" stroke="#333333" points="780.83,-392.89 777.33,-382.89 773.83,-392.89 780.83,-392.89"/>
<text xml:space="preserve" text-anchor="middle" x="741.62" y="-417.2" font-family="Times,serif" font-size="9.00">Read UI</text>
</g>
<!-- dynamodb -->
<g id="node13" class="node">
<title>dynamodb</title>
<polygon fill="#e8e8f8" stroke="#e8e8f8" points="927.12,-381 854.12,-381 854.12,-345 927.12,-345 927.12,-381"/>
<text xml:space="preserve" text-anchor="middle" x="890.62" y="-365.5" font-family="Arial" font-size="10.00">DynamoDB</text>
<text xml:space="preserve" text-anchor="middle" x="890.62" y="-353.5" font-family="Arial" font-size="10.00">(Primary DB)</text>
</g>
<!-- lambda&#45;&gt;dynamodb -->
<g id="edge7" class="edge">
<title>lambda&#45;&gt;dynamodb</title>
<path fill="none" stroke="#333333" d="M493.05,-490C598.29,-490 883.38,-490 883.38,-490 883.38,-490 883.38,-392.98 883.38,-392.98"/>
<polygon fill="#333333" stroke="#333333" points="886.88,-392.98 883.38,-382.98 879.88,-392.98 886.88,-392.98"/>
<text xml:space="preserve" text-anchor="middle" x="826.88" y="-417.2" font-family="Times,serif" font-size="9.00">Read/Write Data</text>
</g>
<!-- yoto_api -->
<g id="node16" class="node">
<title>yoto_api</title>
<polygon fill="#ffe8e8" stroke="#ffe8e8" points="509.75,-381 425.5,-381 425.5,-345 509.75,-345 509.75,-381"/>
<text xml:space="preserve" text-anchor="middle" x="467.62" y="-365.5" font-family="Arial" font-size="10.00">Yoto Public API</text>
<text xml:space="preserve" text-anchor="middle" x="467.62" y="-353.5" font-family="Arial" font-size="10.00">(External)</text>
</g>
<!-- lambda&#45;&gt;yoto_api -->
<g id="edge11" class="edge">
<title>lambda&#45;&gt;yoto_api</title>
<path fill="none" stroke="#333333" d="M459.06,-459.52C459.06,-459.52 459.06,-392.94 459.06,-392.94"/>
<polygon fill="#333333" stroke="#333333" points="462.56,-392.94 459.06,-382.94 455.56,-392.94 462.56,-392.94"/>
<text xml:space="preserve" text-anchor="middle" x="491.38" y="-422.45" font-family="Times,serif" font-size="9.00">Yoto API Integration</text>
<text xml:space="preserve" text-anchor="middle" x="491.38" y="-411.95" font-family="Times,serif" font-size="9.00">(OAuth tokens)</text>
</g>
<!-- polly -->
<g id="node17" class="node">
<title>polly</title>
<polygon fill="#e8f8e8" stroke="#e8f8e8" points="609.25,-381 546,-381 546,-345 609.25,-345 609.25,-381"/>
<text xml:space="preserve" text-anchor="middle" x="577.62" y="-365.5" font-family="Arial" font-size="10.00">AWS Polly</text>
<text xml:space="preserve" text-anchor="middle" x="577.62" y="-353.5" font-family="Arial" font-size="10.00">(TTS)</text>
</g>
<!-- lambda&#45;&gt;polly -->
<g id="edge12" class="edge">
<title>lambda&#45;&gt;polly</title>
<path fill="none" stroke="#333333" d="M492.87,-466C528.98,-466 577.62,-466 577.62,-466 577.62,-466 577.62,-392.93 577.62,-392.93"/>
<polygon fill="#333333" stroke="#333333" points="581.13,-392.93 577.63,-382.93 574.13,-392.93 581.13,-392.93"/>
<text xml:space="preserve" text-anchor="middle" x="586.88" y="-422.45" font-family="Times,serif" font-size="9.00">TTS</text>
<text xml:space="preserve" text-anchor="middle" x="586.88" y="-411.95" font-family="Times,serif" font-size="9.00">Synthesis</text>
</g>
<!-- secrets -->
<g id="node18" class="node">
<title>secrets</title>
<polygon fill="#f8f8e0" stroke="#f8f8e0" points="720.25,-381 645,-381 645,-345 720.25,-345 720.25,-381"/>
<text xml:space="preserve" text-anchor="middle" x="682.62" y="-365.5" font-family="Arial" font-size="10.00">AWS Secrets</text>
<text xml:space="preserve" text-anchor="middle" x="682.62" y="-353.5" font-family="Arial" font-size="10.00">Manager</text>
</g>
<!-- lambda&#45;&gt;secrets -->
<g id="edge13" class="edge">
<title>lambda&#45;&gt;secrets</title>
<path fill="none" stroke="#333333" d="M493.04,-472C558.02,-472 682.62,-472 682.62,-472 682.62,-472 682.62,-393 682.62,-393"/>
<polygon fill="#333333" stroke="#333333" points="686.13,-393 682.63,-383 679.13,-393 686.13,-393"/>
<text xml:space="preserve" text-anchor="middle" x="665.5" y="-422.45" font-family="Times,serif" font-size="9.00">Retrieve</text>
<text xml:space="preserve" text-anchor="middle" x="665.5" y="-411.95" font-family="Times,serif" font-size="9.00">Credentials</text>
</g>
<!-- cloudwatch -->
<g id="node19" class="node">
<title>cloudwatch</title>
<polygon fill="#f0f8e8" stroke="#f0f8e8" points="931.62,-266 849.62,-266 849.62,-230 931.62,-230 931.62,-266"/>
<text xml:space="preserve" text-anchor="middle" x="890.62" y="-250.5" font-family="Arial" font-size="10.00">CloudWatch</text>
<text xml:space="preserve" text-anchor="middle" x="890.62" y="-238.5" font-family="Arial" font-size="10.00">Logs &amp; Metrics</text>
</g>
<!-- lambda&#45;&gt;cloudwatch -->
<g id="edge14" class="edge">
<title>lambda&#45;&gt;cloudwatch</title>
<path fill="none" stroke="#333333" d="M421.06,-459.87C421.06,-404.61 421.06,-242 421.06,-242 421.06,-242 837.85,-242 837.85,-242"/>
<polygon fill="#333333" stroke="#333333" points="837.85,-245.5 847.85,-242 837.85,-238.5 837.85,-245.5"/>
<text xml:space="preserve" text-anchor="middle" x="281.62" y="-359.7" font-family="Times,serif" font-size="9.00">Logs</text>
</g>
<!-- lambda&#45;&gt;cloudwatch -->
<g id="edge27" class="edge">
<title>lambda&#45;&gt;cloudwatch</title>
<path fill="none" stroke="#333333" d="M423.28,-459.67C423.28,-406.17 423.28,-254 423.28,-254 423.28,-254 837.64,-254 837.64,-254"/>
<polygon fill="#333333" stroke="#333333" points="837.64,-257.5 847.64,-254 837.64,-250.5 837.64,-257.5"/>
<text xml:space="preserve" text-anchor="middle" x="376.12" y="-359.7" font-family="Times,serif" font-size="9.00">Metrics</text>
</g>
<!-- ecs_cluster -->
<g id="node6" class="node">
<title>ecs_cluster</title>
<polygon fill="#e8f8e8" stroke="#e8f8e8" points="1473.88,-611 1387.38,-611 1387.38,-575 1473.88,-575 1473.88,-611"/>
<text xml:space="preserve" text-anchor="middle" x="1430.62" y="-595.5" font-family="Arial" font-size="10.00">ECS Cluster</text>
<text xml:space="preserve" text-anchor="middle" x="1430.62" y="-583.5" font-family="Arial" font-size="10.00">(MQTT Handler)</text>
</g>
<!-- fargate -->
<g id="node7" class="node">
<title>fargate</title>
<polygon fill="#e8f8e8" stroke="#e8f8e8" points="1193.12,-496 1108.12,-496 1108.12,-460 1193.12,-460 1193.12,-496"/>
<text xml:space="preserve" text-anchor="middle" x="1150.62" y="-480.5" font-family="Arial" font-size="10.00">Fargate Service</text>
<text xml:space="preserve" text-anchor="middle" x="1150.62" y="-468.5" font-family="Arial" font-size="10.00">(MQTT Bridge)</text>
</g>
<!-- ecs_cluster&#45;&gt;fargate -->
<g id="edge16" class="edge">
<title>ecs_cluster&#45;&gt;fargate</title>
<path fill="none" stroke="#333333" d="M1430.62,-574.51C1430.62,-543.41 1430.62,-484 1430.62,-484 1430.62,-484 1204.97,-484 1204.97,-484"/>
<polygon fill="#333333" stroke="#333333" points="1204.97,-480.5 1194.97,-484 1204.97,-487.5 1204.97,-480.5"/>
</g>
<!-- fargate&#45;&gt;dynamodb -->
<g id="edge19" class="edge">
<title>fargate&#45;&gt;dynamodb</title>
<path fill="none" stroke="#333333" d="M1107.87,-478C1040.94,-478 919,-478 919,-478 919,-478 919,-392.99 919,-392.99"/>
<polygon fill="#333333" stroke="#333333" points="922.5,-392.99 919,-382.99 915.5,-392.99 922.5,-392.99"/>
<text xml:space="preserve" text-anchor="middle" x="962" y="-422.45" font-family="Times,serif" font-size="9.00">Read/Write</text>
<text xml:space="preserve" text-anchor="middle" x="962" y="-411.95" font-family="Times,serif" font-size="9.00">Device state</text>
</g>
<!-- fargate&#45;&gt;mqtt_broker -->
<g id="edge20" class="edge">
<title>fargate&#45;&gt;mqtt_broker</title>
<path fill="none" stroke="#333333" d="M1171.88,-459.54C1171.88,-429.17 1171.88,-372 1171.88,-372 1171.88,-372 1275.73,-372 1275.73,-372"/>
<polygon fill="#333333" stroke="#333333" points="1275.73,-375.5 1285.73,-372 1275.73,-368.5 1275.73,-375.5"/>
<text xml:space="preserve" text-anchor="middle" x="1277.12" y="-422.45" font-family="Times,serif" font-size="9.00">MQTT Subscribe</text>
<text xml:space="preserve" text-anchor="middle" x="1277.12" y="-411.95" font-family="Times,serif" font-size="9.00">Publish</text>
</g>
<!-- yoto_devices -->
<g id="node15" class="node">
<title>yoto_devices</title>
<polygon fill="#ffe8e8" stroke="#ffe8e8" points="1290.38,-266 1206.88,-266 1206.88,-230 1290.38,-230 1290.38,-266"/>
<text xml:space="preserve" text-anchor="middle" x="1248.62" y="-250.5" font-family="Arial" font-size="10.00">Yoto Devices</text>
<text xml:space="preserve" text-anchor="middle" x="1248.62" y="-238.5" font-family="Arial" font-size="10.00">(Edge Devices)</text>
</g>
<!-- fargate&#45;&gt;yoto_devices -->
<g id="edge21" class="edge">
<title>fargate&#45;&gt;yoto_devices</title>
<path fill="none" stroke="#333333" d="M1193.41,-472C1208.31,-472 1221.38,-472 1221.38,-472 1221.38,-472 1221.38,-277.84 1221.38,-277.84"/>
<polygon fill="#333333" stroke="#333333" points="1224.88,-277.84 1221.38,-267.84 1217.88,-277.84 1224.88,-277.84"/>
<text xml:space="preserve" text-anchor="middle" x="1217.5" y="-359.7" font-family="Times,serif" font-size="9.00">MQTT Protocol</text>
</g>
<!-- fargate&#45;&gt;cloudwatch -->
<g id="edge22" class="edge">
<title>fargate&#45;&gt;cloudwatch</title>
<path fill="none" stroke="#333333" d="M1150.62,-459.87C1150.62,-404.61 1150.62,-242 1150.62,-242 1150.62,-242 943.62,-242 943.62,-242"/>
<polygon fill="#333333" stroke="#333333" points="943.62,-238.5 933.62,-242 943.62,-245.5 943.62,-238.5"/>
<text xml:space="preserve" text-anchor="middle" x="1008.62" y="-359.7" font-family="Times,serif" font-size="9.00">Logs</text>
</g>
<!-- fargate&#45;&gt;cloudwatch -->
<g id="edge28" class="edge">
<title>fargate&#45;&gt;cloudwatch</title>
<path fill="none" stroke="#333333" d="M1129.38,-459.67C1129.38,-406.17 1129.38,-254 1129.38,-254 1129.38,-254 943.45,-254 943.45,-254"/>
<polygon fill="#333333" stroke="#333333" points="943.45,-250.5 933.45,-254 943.45,-257.5 943.45,-250.5"/>
<text xml:space="preserve" text-anchor="middle" x="1103.12" y="-359.7" font-family="Times,serif" font-size="9.00">Metrics</text>
</g>
<!-- vpc -->
<g id="node8" class="node">
<title>vpc</title>
<polygon fill="#f8f0e8" stroke="#f8f0e8" points="1457.62,-726 1403.62,-726 1403.62,-690 1457.62,-690 1457.62,-726"/>
<text xml:space="preserve" text-anchor="middle" x="1430.62" y="-704.5" font-family="Arial" font-size="10.00">VPC</text>
</g>
<!-- vpc&#45;&gt;ecs_cluster -->
<g id="edge15" class="edge">
<title>vpc&#45;&gt;ecs_cluster</title>
<path fill="none" stroke="#333333" d="M1430.62,-689.52C1430.62,-689.52 1430.62,-622.94 1430.62,-622.94"/>
<polygon fill="#333333" stroke="#333333" points="1434.13,-622.94 1430.63,-612.94 1427.13,-622.94 1434.13,-622.94"/>
</g>
<!-- subnets -->
<g id="node9" class="node">
<title>subnets</title>
<polygon fill="#f8f0e8" stroke="#f8f0e8" points="1113.62,-611 1031.62,-611 1031.62,-575 1113.62,-575 1113.62,-611"/>
<text xml:space="preserve" text-anchor="middle" x="1072.62" y="-595.5" font-family="Arial" font-size="10.00">Public Subnets</text>
<text xml:space="preserve" text-anchor="middle" x="1072.62" y="-583.5" font-family="Arial" font-size="10.00">(Multi&#45;AZ)</text>
</g>
<!-- subnets&#45;&gt;fargate -->
<g id="edge17" class="edge">
<title>subnets&#45;&gt;fargate</title>
<path fill="none" stroke="#333333" d="M1113.84,-593C1123.73,-593 1131.5,-593 1131.5,-593 1131.5,-593 1131.5,-507.99 1131.5,-507.99"/>
<polygon fill="#333333" stroke="#333333" points="1135,-507.99 1131.5,-497.99 1128,-507.99 1135,-507.99"/>
<text xml:space="preserve" text-anchor="middle" x="1090.62" y="-532.2" font-family="Times,serif" font-size="9.00">Placement</text>
</g>
<!-- sg -->
<g id="node10" class="node">
<title>sg</title>
<polygon fill="#f8f8e0" stroke="#f8f8e0" points="1235.88,-611 1149.38,-611 1149.38,-575 1235.88,-575 1235.88,-611"/>
<text xml:space="preserve" text-anchor="middle" x="1192.62" y="-589.5" font-family="Arial" font-size="10.00">Security Groups</text>
</g>
<!-- sg&#45;&gt;fargate -->
<g id="edge18" class="edge">
<title>sg&#45;&gt;fargate</title>
<path fill="none" stroke="#333333" d="M1171.25,-574.52C1171.25,-574.52 1171.25,-507.94 1171.25,-507.94"/>
<polygon fill="#333333" stroke="#333333" points="1174.75,-507.94 1171.25,-497.94 1167.75,-507.94 1174.75,-507.94"/>
<text xml:space="preserve" text-anchor="middle" x="1218.12" y="-532.2" font-family="Times,serif" font-size="9.00">Network rules</text>
</g>
<!-- dynamodb&#45;&gt;cloudwatch -->
<g id="edge29" class="edge">
<title>dynamodb&#45;&gt;cloudwatch</title>
<path fill="none" stroke="#333333" d="M890.62,-344.52C890.62,-344.52 890.62,-277.94 890.62,-277.94"/>
<polygon fill="#333333" stroke="#333333" points="894.13,-277.94 890.63,-267.94 887.13,-277.94 894.13,-277.94"/>
<text xml:space="preserve" text-anchor="middle" x="904.12" y="-302.2" font-family="Times,serif" font-size="9.00">Metrics</text>
</g>
<!-- mqtt_broker&#45;&gt;yoto_devices -->
<g id="edge23" class="edge">
<title>mqtt_broker&#45;&gt;yoto_devices</title>
<path fill="none" stroke="#333333" d="M1287.3,-354C1269.53,-354 1253.04,-354 1253.04,-354 1253.04,-354 1253.04,-277.98 1253.04,-277.98"/>
<polygon fill="#333333" stroke="#333333" points="1256.54,-277.98 1253.04,-267.98 1249.54,-277.98 1256.54,-277.98"/>
<text xml:space="preserve" text-anchor="middle" x="1382" y="-307.45" font-family="Times,serif" font-size="9.00">Command/Status</text>
<text xml:space="preserve" text-anchor="middle" x="1382" y="-296.95" font-family="Times,serif" font-size="9.00">Messages</text>
</g>
<!-- yoto_devices&#45;&gt;mqtt_broker -->
<g id="edge24" class="edge">
<title>yoto_devices&#45;&gt;mqtt_broker</title>
<path fill="none" stroke="#333333" d="M1270.21,-266.48C1270.21,-298.98 1270.21,-363 1270.21,-363 1270.21,-363 1275.52,-363 1275.52,-363"/>
<polygon fill="#333333" stroke="#333333" points="1275.52,-366.5 1285.52,-363 1275.52,-359.5 1275.52,-366.5"/>
<text xml:space="preserve" text-anchor="middle" x="1279.38" y="-302.2" font-family="Times,serif" font-size="9.00">Events/Telemetry</text>
</g>
<!-- cloudwatch_alarm -->
<g id="node20" class="node">
<title>cloudwatch_alarm</title>
<polygon fill="#f0f8e8" stroke="#f0f8e8" points="925.25,-151 856,-151 856,-115 925.25,-115 925.25,-151"/>
<text xml:space="preserve" text-anchor="middle" x="890.62" y="-135.5" font-family="Arial" font-size="10.00">CloudWatch</text>
<text xml:space="preserve" text-anchor="middle" x="890.62" y="-123.5" font-family="Arial" font-size="10.00">Alarms</text>
</g>
<!-- cloudwatch&#45;&gt;cloudwatch_alarm -->
<g id="edge25" class="edge">
<title>cloudwatch&#45;&gt;cloudwatch_alarm</title>
<path fill="none" stroke="#333333" d="M890.62,-229.52C890.62,-229.52 890.62,-162.94 890.62,-162.94"/>
<polygon fill="#333333" stroke="#333333" points="894.13,-162.94 890.63,-152.94 887.13,-162.94 894.13,-162.94"/>
<text xml:space="preserve" text-anchor="middle" x="910.5" y="-192.45" font-family="Times,serif" font-size="9.00">Metrics</text>
<text xml:space="preserve" text-anchor="middle" x="910.5" y="-181.95" font-family="Times,serif" font-size="9.00">Thresholds</text>
</g>
<!-- sns -->
<g id="node21" class="node">
<title>sns</title>
<polygon fill="#f8e8e8" stroke="#f8e8e8" points="929,-36 852.25,-36 852.25,0 929,0 929,-36"/>
<text xml:space="preserve" text-anchor="middle" x="890.62" y="-20.5" font-family="Arial" font-size="10.00">SNS Topic</text>
<text xml:space="preserve" text-anchor="middle" x="890.62" y="-8.5" font-family="Arial" font-size="10.00">(Notifications)</text>
</g>
<!-- cloudwatch_alarm&#45;&gt;sns -->
<g id="edge26" class="edge">
<title>cloudwatch_alarm&#45;&gt;sns</title>
<path fill="none" stroke="#333333" d="M890.62,-114.52C890.62,-114.52 890.62,-47.94 890.62,-47.94"/>
<polygon fill="#333333" stroke="#333333" points="894.13,-47.94 890.63,-37.94 887.13,-47.94 894.13,-47.94"/>
<text xml:space="preserve" text-anchor="middle" x="911.62" y="-77.45" font-family="Times,serif" font-size="9.00">Notification</text>
<text xml:space="preserve" text-anchor="middle" x="911.62" y="-66.95" font-family="Times,serif" font-size="9.00">Trigger</text>
</g>
<!-- legend_label -->
<g id="node22" class="node">
<title>legend_label</title>
<polygon fill="lightgrey" stroke="none" points="1641.62,-726 1493.62,-726 1493.62,-690 1641.62,-690 1641.62,-726"/>
<text xml:space="preserve" text-anchor="middle" x="1567.62" y="-703.73" font-family="Arial" font-size="12.00">AWS Service Categories</text>
</g>
<!-- legend_compute -->
<g id="node23" class="node">
<title>legend_compute</title>
<polygon fill="#e8f8e8" stroke="#e8f8e8" points="1803.75,-726 1677.5,-726 1677.5,-690 1803.75,-690 1803.75,-726"/>
<text xml:space="preserve" text-anchor="middle" x="1740.62" y="-704.5" font-family="Arial" font-size="10.00">Compute (Lambda, ECS)</text>
</g>
<!-- legend_storage -->
<g id="node24" class="node">
<title>legend_storage</title>
<polygon fill="#f0e8f8" stroke="#f0e8f8" points="1911,-726 1840.25,-726 1840.25,-690 1911,-690 1911,-726"/>
<text xml:space="preserve" text-anchor="middle" x="1875.62" y="-704.5" font-family="Arial" font-size="10.00">Storage (S3)</text>
</g>
<!-- legend_db -->
<g id="node25" class="node">
<title>legend_db</title>
<polygon fill="#e8e8f8" stroke="#e8e8f8" points="2064.62,-726 1946.62,-726 1946.62,-690 2064.62,-690 2064.62,-726"/>
<text xml:space="preserve" text-anchor="middle" x="2005.62" y="-704.5" font-family="Arial" font-size="10.00">Database (DynamoDB)</text>
</g>
<!-- legend_network -->
<g id="node26" class="node">
<title>legend_network</title>
<polygon fill="#f8f0e8" stroke="#f8f0e8" points="2225,-726 2100.25,-726 2100.25,-690 2225,-690 2225,-726"/>
<text xml:space="preserve" text-anchor="middle" x="2162.62" y="-704.5" font-family="Arial" font-size="10.00">Network (API GW, VPC)</text>
</g>
<!-- legend_messaging -->
<g id="node27" class="node">
<title>legend_messaging</title>
<polygon fill="#f8e8e8" stroke="#f8e8e8" points="2387.75,-726 2261.5,-726 2261.5,-690 2387.75,-690 2387.75,-726"/>
<text xml:space="preserve" text-anchor="middle" x="2324.62" y="-704.5" font-family="Arial" font-size="10.00">Messaging (MQTT, SNS)</text>
</g>
<!-- legend_security -->
<g id="node28" class="node">
<title>legend_security</title>
<polygon fill="#f8f8e0" stroke="#f8f8e0" points="2557.88,-726 2423.38,-726 2423.38,-690 2557.88,-690 2557.88,-726"/>
<text xml:space="preserve" text-anchor="middle" x="2490.62" y="-704.5" font-family="Arial" font-size="10.00">Security (Cognito, Secrets)</text>
</g>
<!-- legend_external -->
<g id="node29" class="node">
<title>legend_external</title>
<polygon fill="#ffe8e8" stroke="#ffe8e8" points="2671.38,-726 2593.88,-726 2593.88,-690 2671.38,-690 2671.38,-726"/>
<text xml:space="preserve" text-anchor="middle" x="2632.62" y="-704.5" font-family="Arial" font-size="10.00">External/Edge</text>
</g>
</g>
</svg>
